<svg width="241" height="49" viewBox="0 0 241 49" fill="none" xmlns="http://www.w3.org/2000/svg">
<path d="M198.091 0.383105L197.501 0.899168V4.21695C197.501 6.06016 197.575 7.53481 197.575 7.60853C197.648 7.60853 197.943 7.5347 198.312 7.31351L198.976 6.94487V3.47967C198.976 1.04663 198.902 0.014462 198.828 0.014462C198.754 -0.0592665 198.459 0.161919 198.091 0.383105Z" fill="white"/>
<path d="M204.947 6.1339C204.947 15.5712 204.8 24.7871 204.652 25.0083C204.579 25.1557 204.579 25.1559 204.431 24.9347C204.284 24.6398 204.136 19.3313 204.136 12.622V9.23046L203.473 8.86182C202.219 8.12454 199.639 6.79746 199.565 6.87119C199.565 6.94492 199.491 9.00928 199.491 11.4423C199.491 13.9491 199.418 15.9398 199.418 15.9398C199.418 15.9398 199.123 15.7923 198.754 15.6448C198.459 15.4974 198.091 15.35 198.017 15.35C197.869 15.35 197.796 21.1008 197.796 28.4737C197.796 31.3491 197.722 36.7311 197.722 40.4913L197.648 47.3481H197.206H196.69V41.5236C196.616 38.3533 196.616 33.7083 196.616 31.1278C196.616 28.5473 196.542 24.8609 196.542 22.8702C196.469 18.8152 196.469 18.9626 195.805 19.5525L195.436 19.8473L195.363 26.3354C195.363 35.2566 195.289 47.0532 195.142 47.2006C195.142 47.3481 195.068 47.4219 194.994 47.4219C194.699 47.4219 194.699 47.4956 194.625 34.0033C194.552 25.8194 194.478 20.8059 194.478 20.7322C194.38 20.683 194.281 20.7075 194.183 20.8058C194.036 20.8795 193.962 21.1008 193.888 21.6169C193.888 21.9855 193.814 26.7041 193.814 32.0863C193.814 37.4685 193.814 43.1456 193.741 44.6201C193.667 47.3481 193.667 47.3481 193.446 47.3481C193.372 47.4218 193.151 47.4218 193.003 47.3481C192.856 47.2743 192.856 47.2744 192.856 44.3253C192.856 38.6482 192.708 28.0312 192.635 28.0312C192.561 28.0312 192.192 28.2524 191.824 28.5473L191.086 28.9897L191.013 36.7312C190.939 41.0075 190.939 44.5465 190.865 44.6939C190.791 44.9151 190.791 44.915 190.497 44.915C190.349 44.8413 190.202 44.8413 190.202 44.7676C190.128 44.7676 189.981 31.5703 189.981 28.4737V25.5245L191.086 24.7873C191.676 24.4186 192.266 23.9762 192.413 23.8287C192.561 23.6076 192.561 23.4601 192.635 21.1008V18.5939L194.183 17.488L195.805 16.4559L195.879 13.2855C195.879 11.516 195.952 9.37792 196.026 8.49318C196.026 7.60844 196.026 6.7975 196.026 6.72377C195.952 6.42885 193.003 4.6593 192.856 4.80675C192.782 4.80675 192.782 7.46098 192.708 10.705C192.708 13.8754 192.635 16.5296 192.635 16.6033C192.561 16.677 191.676 16.2347 191.381 15.9398C191.16 15.7924 191.086 15.7185 191.086 13.5804L191.013 11.3685L190.349 10.9263C189.612 10.4839 189.538 10.4839 189.391 10.7788C189.391 10.9263 189.391 14.244 189.317 18.2253C189.317 22.2066 189.317 27.8101 189.243 30.6855C189.169 36.1414 189.169 36.4363 188.727 36.51C188.506 36.51 188.506 35.3303 188.358 22.649C188.285 17.0456 188.211 12.4009 188.137 12.2534C188.064 11.9585 187.916 12.0322 187.769 12.4008C187.695 12.5483 187.621 16.1609 187.547 20.5846C187.4 36.4362 187.4 35.7727 186.884 35.1829C186.736 35.0354 186.736 34.6668 186.663 27.0727C186.589 22.649 186.515 18.9626 186.515 18.7414C186.441 18.5202 186.368 18.3728 185.63 17.9305C185.114 17.6355 184.746 17.4143 184.672 17.488C184.672 17.5617 184.598 20.3635 184.524 23.6813C184.524 27.0728 184.451 29.8006 184.451 29.8006C184.377 29.8006 183.861 29.5796 183.271 29.211L182.165 28.6211L182.091 29.1372C182.018 29.4321 182.018 33.266 182.018 37.6159C182.018 41.9659 182.018 45.8735 181.944 46.3896L181.87 47.3481H181.428H180.985L180.912 44.4727C180.838 42.8507 180.764 40.2701 180.764 38.6481L180.691 35.6253L180.322 35.4041C179.511 34.888 179.29 34.8142 179.216 34.9616C179.142 35.0354 179.142 37.8372 179.142 41.1549V47.2744L178.921 47.3481C178.774 47.4218 178.626 47.3481 178.626 47.3481C178.479 47.2006 178.331 45.3574 178.331 42.5557C178.331 39.9015 178.331 39.9753 177.815 40.1964L177.594 40.2702L177.52 43.8091C177.447 45.726 177.447 47.2744 177.447 47.2744C177.447 47.2744 176.562 47.3481 175.53 47.3481C173.465 47.4218 173.613 47.4218 173.76 48.0854L173.834 48.3804H204.579H235.324V47.9379V47.4219H233.775C232.89 47.4219 231.785 47.4218 231.195 47.3481L230.163 47.2744V40.1964V33.0448L229.351 32.4549C228.909 32.16 228.54 31.9389 228.467 31.9389C228.393 31.9389 228.319 33.3397 228.319 35.6253C228.246 37.6897 228.245 40.1227 228.172 41.0811L228.098 42.7031L227.951 42.5557C227.803 42.4083 227.729 42.1133 227.656 41.5972C227.582 41.2286 227.508 35.7727 227.508 29.5058L227.434 18.1517L227.066 17.9305C226.476 17.4881 225.812 17.1931 225.812 17.2668C225.739 17.3405 225.665 23.6075 225.665 31.2752C225.591 38.943 225.591 45.6523 225.518 46.2421C225.444 47.2006 225.444 47.2743 225.223 47.3481C225.001 47.4218 224.78 47.348 224.707 47.1268C224.707 47.0531 224.633 39.5328 224.559 30.3905C224.485 15.4236 224.412 13.8016 224.264 13.6542C223.896 13.3593 222.568 12.6957 222.495 12.7695C222.495 12.8432 222.421 18.5939 222.347 25.5982C222.347 37.5422 222.347 38.3532 222.126 38.5006C221.61 39.0167 221.61 38.3532 221.536 22.133L221.463 8.93562L221.168 8.7144C220.799 8.41949 219.398 7.75597 219.324 7.82969C219.251 7.82969 219.177 13.3593 219.177 19.9949L219.103 32.1601H218.882C218.685 32.1601 218.563 32.0617 218.513 31.8651C218.366 31.4964 218.218 23.0176 218.218 14.6863C218.218 11.516 218.145 7.82966 218.145 6.50255C218.071 4.0695 218.071 3.92201 217.85 3.70083C217.702 3.6271 217.629 3.55341 217.555 3.55341C217.407 3.77459 217.334 5.6915 217.334 13.6542V21.9117H217.112C216.67 21.7643 216.597 21.6168 216.523 20.4372C216.523 19.7736 216.449 15.4237 216.449 10.705C216.449 6.06014 216.375 2.07887 216.375 1.93141L216.302 1.71019L216.007 2.00503L215.638 2.22626V11.5161C215.638 16.6034 215.564 20.8796 215.49 20.8796C215.49 20.9533 215.343 20.8795 215.196 20.8058L214.827 20.6584V17.0458V13.433L214.532 13.2855L214.237 13.2117V10.1152V7.09241L212.836 6.20752C212.099 5.76515 211.362 5.39662 211.214 5.39662C210.993 5.32289 210.993 5.32293 210.919 7.09241C210.919 7.97715 210.846 13.8753 210.772 20.0685C210.772 26.3354 210.698 31.4227 210.624 31.4964C210.551 31.6439 210.035 31.3491 209.961 31.0542C209.887 30.833 209.74 21.2483 209.666 15.2025C209.666 10.8526 209.666 9.67287 209.445 9.45168C209.445 9.45168 209.224 9.52534 209.076 9.74653L208.707 10.1152V17.9305C208.707 22.2067 208.634 25.7456 208.634 25.7456C208.56 25.7456 208.339 25.5982 208.044 25.4507L207.602 25.1559V16.3085V7.46105L208.413 6.87119L209.224 6.28132L209.297 4.73295V3.18476L207.528 2.15246C206.569 1.63636 205.611 1.04664 205.39 0.972908L204.947 0.751686V6.1339ZM206.938 26.1142C207.012 27.3676 207.012 44.3989 206.938 46.0209L206.864 47.3481H205.611H204.358V44.6939C204.358 43.2931 204.284 39.2379 204.284 35.6989L204.21 29.3584L203.768 29.1372C203.252 28.8422 203.104 28.6211 203.03 28.105C202.957 27.7364 202.957 27.6626 203.178 27.4414C203.399 27.1465 206.569 25.1559 206.79 25.1559C206.864 25.1559 206.938 25.4507 206.938 26.1142ZM202.367 38.3532V47.2744L201.998 47.3481C201.482 47.4218 201.335 47.348 201.261 47.1268C201.187 47.0531 201.114 44.6201 201.04 41.671C200.966 34.9617 200.966 34.9617 200.524 35.2567C200.229 35.4041 200.155 35.9938 200.155 41.5972L200.081 47.3481H199.713H199.418L199.344 44.3989C199.27 42.7769 199.27 39.6804 199.27 37.4685L199.344 33.4134L199.786 33.0448C201.04 31.9389 200.966 32.0862 201.113 30.9066C201.187 30.3905 201.261 29.8744 201.261 29.8744C201.261 29.8007 202.146 29.3584 202.219 29.3584C202.367 29.3584 202.367 31.2016 202.367 38.3532ZM216.08 33.9295C216.154 34.3719 216.154 46.0947 216.08 46.832L216.007 47.3481H215.122C214.311 47.3481 214.163 47.2743 214.09 47.1268C214.09 47.0531 214.016 44.6938 214.016 41.8184C213.942 39.0167 213.942 36.6575 213.868 36.5838C213.795 36.5838 213.574 36.6574 213.352 36.8049L212.91 37.0261V40.049C212.91 41.671 212.836 43.9566 212.836 45.1362L212.763 47.3481H212.468H212.173V41.5236V35.7727L213.279 35.1092C214.679 34.2245 215.785 33.6347 215.933 33.6347C216.007 33.6347 216.08 33.7821 216.08 33.9295Z" fill="white"/>
<path d="M229.573 24.4187V25.377H230.089L230.531 25.4508V24.5661V23.6814L230.236 23.6076C229.499 23.4602 229.499 23.4602 229.573 24.4187Z" fill="white"/>
<path d="M233.112 27.8838L232.743 28.105V30.2431C232.743 31.4227 232.743 32.4549 232.743 32.4549C232.817 32.5287 233.038 32.3812 233.333 32.2337L233.775 32.0125V30.2431C233.775 28.3999 233.702 27.6626 233.554 27.6626C233.48 27.6626 233.259 27.7364 233.112 27.8838Z" fill="white"/>
<path d="M232.448 37.5421C232.227 37.6896 232.301 38.1321 232.522 38.2058C232.596 38.2795 233.112 38.3532 233.628 38.3532H234.512V37.8372V37.3947H233.554C232.89 37.3947 232.522 37.4684 232.448 37.5421Z" fill="white"/>
<path d="M230.826 41.671C230.826 42.4083 230.826 43.7354 230.9 44.6201L230.974 46.3159H235.766H240.558V45.8735V45.4312L239.084 45.3574C238.273 45.3574 236.356 45.2836 234.881 45.2836L232.153 45.21L232.08 43.7354C232.08 42.9981 232.08 42.1871 232.08 42.0396C232.153 41.7447 232.153 41.7446 233.112 41.5972C234.144 41.5235 234.439 41.3024 234.144 41.0075C234.07 40.86 233.775 40.7862 232.964 40.7125C231.858 40.6388 231.342 40.565 230.974 40.4913C230.826 40.4175 230.826 40.4913 230.826 41.671Z" fill="white"/>
<path d="M176.193 41.9658C176.046 42.187 175.972 42.3345 175.898 43.6616L175.824 45.2099L173.392 45.2836C172.064 45.2836 170.737 45.3574 170.442 45.3574L170 45.4312V45.8734L170.074 46.2421H173.244C175.603 46.2421 176.488 46.2421 176.562 46.0947C176.635 46.0209 176.709 45.4311 176.709 44.104C176.783 41.671 176.709 41.4497 176.193 41.9658Z" fill="white"/>
<path d="M157.512 24.4044V23.5982C157.123 24.1498 156.551 24.4256 155.794 24.4256C154.698 24.4256 154.15 23.8139 154.15 22.5904V20.4582C154.15 20.2673 154.061 20.1683 153.884 20.1612L153.545 20.14V19.2701H155.412V22.3146C155.412 22.6894 155.465 22.9723 155.571 23.1632C155.677 23.3542 155.896 23.4496 156.229 23.4496C156.561 23.4496 156.826 23.3471 157.024 23.142C157.229 22.9369 157.332 22.6894 157.332 22.3995V20.4794C157.332 20.3592 157.311 20.2779 157.268 20.2354C157.233 20.1859 157.166 20.1612 157.067 20.1612L156.727 20.14V19.2701H158.594V24.4044C158.594 25.2601 158.386 25.8859 157.968 26.282C157.558 26.678 156.932 26.876 156.091 26.876C155.256 26.876 154.606 26.7593 154.139 26.526V25.0514L155.147 24.9666V25.4758C155.147 25.6667 155.235 25.794 155.412 25.8577C155.589 25.9284 155.833 25.9637 156.144 25.9637C157.056 25.9637 157.512 25.4439 157.512 24.4044Z" fill="white"/>
<path d="M147.184 20.1188V19.2701H148.977V19.9596C149.161 19.698 149.405 19.4929 149.709 19.3444C150.013 19.1888 150.342 19.111 150.696 19.111C151.233 19.111 151.647 19.2666 151.937 19.5777C152.234 19.8818 152.382 20.3415 152.382 20.9568V23.7255L152.987 23.7573V24.6059H150.462V23.7997L150.812 23.7679C150.918 23.7538 150.996 23.7255 151.046 23.683C151.095 23.6335 151.12 23.5451 151.12 23.4178V21.2326C151.12 20.8436 151.06 20.5572 150.94 20.3733C150.819 20.1824 150.589 20.0869 150.25 20.0869C149.918 20.0869 149.652 20.193 149.454 20.4052C149.256 20.6173 149.157 20.8684 149.157 21.1583V23.7255L149.762 23.7573V24.6059H147.237V23.7997L147.587 23.7679C147.694 23.7538 147.771 23.7255 147.821 23.683C147.87 23.6335 147.895 23.5451 147.895 23.4178V20.4794C147.895 20.2673 147.807 20.1577 147.63 20.1506L147.184 20.1188Z" fill="white"/>
<path d="M145.992 19.4823V23.4284C145.992 23.5416 146.01 23.6194 146.045 23.6618C146.088 23.7042 146.158 23.729 146.257 23.7361L146.597 23.7573V24.6059H144.91V23.9907L144.878 23.9801C144.525 24.4892 144.04 24.7438 143.425 24.7438C142.704 24.7438 142.17 24.514 141.823 24.0543C141.477 23.5946 141.303 22.9652 141.303 22.1661C141.303 21.2043 141.537 20.4547 142.004 19.9172C142.47 19.3797 143.17 19.111 144.104 19.111C144.705 19.111 145.334 19.2348 145.992 19.4823ZM144.762 22.9193V20.1718C144.564 20.0799 144.291 20.0339 143.945 20.0339C143.471 20.0339 143.128 20.2248 142.916 20.6067C142.704 20.9886 142.598 21.4943 142.598 22.1237C142.598 23.2693 142.965 23.8422 143.701 23.8422C144.012 23.8422 144.267 23.7502 144.465 23.5663C144.663 23.3754 144.762 23.1597 144.762 22.9193Z" fill="white"/>
<path d="M135.794 25.6137V20.4794C135.794 20.3592 135.773 20.2779 135.73 20.2354C135.695 20.1859 135.628 20.1612 135.529 20.1612L135.083 20.1294V19.2701H136.876V19.9596C136.989 19.7475 137.194 19.553 137.491 19.3762C137.788 19.1994 138.142 19.111 138.552 19.111C139.832 19.111 140.472 20.0091 140.472 21.8054C140.472 22.7601 140.263 23.4921 139.846 24.0013C139.429 24.5105 138.863 24.765 138.149 24.765C137.725 24.765 137.346 24.6625 137.014 24.4574V25.9213L137.873 25.9637V26.8018H135.136V25.9956L135.486 25.9637C135.592 25.9496 135.67 25.9178 135.72 25.8683C135.769 25.8258 135.794 25.741 135.794 25.6137ZM139.157 21.9115C139.157 20.7305 138.8 20.14 138.085 20.14C137.788 20.14 137.534 20.2319 137.322 20.4158C137.116 20.5926 137.014 20.8047 137.014 21.0523V23.4921C137.283 23.6689 137.608 23.7573 137.99 23.7573C138.379 23.7573 138.669 23.5805 138.86 23.2269C139.058 22.8733 139.157 22.4348 139.157 21.9115Z" fill="white"/>
<path d="M125.948 20.1294V19.2701H127.74V19.9596C128.136 19.3939 128.677 19.111 129.363 19.111C130.056 19.111 130.523 19.3939 130.764 19.9596C131.16 19.3939 131.697 19.111 132.376 19.111C132.885 19.111 133.278 19.2666 133.553 19.5777C133.829 19.8818 133.967 20.3415 133.967 20.9568V23.7255L134.572 23.7573V24.6059H132.047V23.7997L132.397 23.7679C132.503 23.7538 132.577 23.7255 132.62 23.683C132.669 23.6335 132.698 23.5487 132.705 23.4284V21.2326C132.705 20.8436 132.659 20.5572 132.567 20.3733C132.482 20.1824 132.277 20.0869 131.952 20.0869C131.626 20.0869 131.375 20.1859 131.198 20.384C131.029 20.582 130.944 20.8472 130.944 21.1796V23.7255L131.527 23.7573V24.6059H129.024V23.7997L129.374 23.7679C129.48 23.7538 129.558 23.7255 129.607 23.683C129.657 23.6335 129.682 23.5451 129.682 23.4178V21.2326C129.682 20.8436 129.636 20.5572 129.544 20.3733C129.459 20.1824 129.25 20.0869 128.918 20.0869C128.592 20.0869 128.345 20.1895 128.175 20.3946C128.005 20.5997 127.921 20.8542 127.921 21.1583V23.7255L128.493 23.7573V24.6059H125.99V23.7997L126.34 23.7679C126.446 23.7538 126.524 23.7255 126.573 23.683C126.623 23.6335 126.648 23.5451 126.648 23.4178H126.658V20.49C126.658 20.3698 126.637 20.2885 126.595 20.2461C126.559 20.1965 126.492 20.1683 126.393 20.1612L125.948 20.1294Z" fill="white"/>
<path d="M122.847 23.8315C123.617 23.8315 124.003 23.2092 124.003 21.9645C124.003 21.3351 123.914 20.8578 123.738 20.5325C123.568 20.2072 123.278 20.0445 122.868 20.0445C122.465 20.0445 122.168 20.2001 121.977 20.5113C121.786 20.8224 121.69 21.2467 121.69 21.7842C121.69 22.7814 121.874 23.4072 122.242 23.6618C122.405 23.775 122.606 23.8315 122.847 23.8315ZM120.407 21.9327C120.407 21.4094 120.485 20.9568 120.64 20.5749C120.796 20.1859 121.004 19.8889 121.266 19.6838C121.768 19.3019 122.323 19.111 122.931 19.111C123.356 19.111 123.713 19.1817 124.003 19.3232C124.3 19.4575 124.53 19.6166 124.692 19.8005C124.862 19.9773 125.004 20.239 125.117 20.5855C125.237 20.925 125.297 21.3281 125.297 21.7948C125.297 22.7707 125.06 23.5098 124.586 24.0119C124.112 24.514 123.504 24.765 122.762 24.765C122.026 24.765 121.45 24.5281 121.033 24.0543C120.615 23.5734 120.407 22.8662 120.407 21.9327Z" fill="white"/>
<path d="M116.801 21.8797C116.801 22.4808 116.914 22.9475 117.14 23.2799C117.367 23.6123 117.692 23.7785 118.116 23.7785C118.548 23.7785 118.972 23.6265 119.389 23.3224L119.845 24.1392C119.343 24.5493 118.714 24.7544 117.957 24.7544C117.2 24.7544 116.603 24.5175 116.164 24.0437C115.733 23.5628 115.517 22.8556 115.517 21.9221C115.517 20.9886 115.765 20.2885 116.26 19.8217C116.762 19.3479 117.324 19.111 117.947 19.111C118.576 19.111 119.159 19.256 119.697 19.5459V20.925L118.721 20.9992V20.49C118.721 20.2991 118.65 20.1824 118.509 20.14C118.374 20.0905 118.233 20.0657 118.084 20.0657C117.229 20.0657 116.801 20.6704 116.801 21.8797Z" fill="white"/>
<path d="M112.344 24.5953C112.28 25.3803 112.054 25.9567 111.665 26.3244C111.276 26.6922 110.668 26.876 109.84 26.876C109.013 26.876 108.366 26.7593 107.899 26.526V25.0515L108.907 24.9666V25.4758C108.907 25.6667 108.995 25.794 109.172 25.8577C109.349 25.9284 109.593 25.9637 109.904 25.9637C110.357 25.9637 110.675 25.8258 110.859 25.55C111.043 25.2813 111.135 24.8994 111.135 24.4044V23.8209C110.795 24.217 110.325 24.415 109.724 24.415C109.356 24.415 109.031 24.3443 108.748 24.2028C108.472 24.0614 108.256 23.8704 108.101 23.63C107.797 23.1491 107.645 22.5833 107.645 21.9327C107.645 21.0063 107.896 20.3062 108.398 19.8323C108.9 19.3514 109.568 19.111 110.403 19.111C111.096 19.111 111.75 19.2418 112.365 19.5035V23.439C112.365 24.0402 112.358 24.4256 112.344 24.5953ZM111.135 22.4419V20.1612C110.887 20.0763 110.604 20.0339 110.286 20.0339C109.855 20.0339 109.522 20.193 109.289 20.5113C109.062 20.8295 108.949 21.2609 108.949 21.8054C108.949 22.9228 109.317 23.4815 110.053 23.4815C110.357 23.4815 110.611 23.3895 110.816 23.2057C111.028 23.0147 111.135 22.7601 111.135 22.4419Z" fill="white"/>
<path d="M101.199 20.1188V19.2701H102.992V19.9596C103.176 19.698 103.42 19.4929 103.724 19.3444C104.028 19.1888 104.357 19.111 104.71 19.111C105.248 19.111 105.662 19.2666 105.952 19.5777C106.249 19.8818 106.397 20.3415 106.397 20.9568V23.7255L107.002 23.7573V24.6059H104.477V23.7997L104.827 23.7679C104.933 23.7538 105.011 23.7255 105.061 23.683C105.11 23.6335 105.135 23.5451 105.135 23.4178V21.2326C105.135 20.8436 105.075 20.5572 104.954 20.3733C104.834 20.1824 104.604 20.0869 104.265 20.0869C103.933 20.0869 103.667 20.193 103.469 20.4052C103.271 20.6173 103.172 20.8684 103.172 21.1583V23.7255L103.777 23.7573V24.6059H101.252V23.7997L101.602 23.7679C101.708 23.7538 101.786 23.7255 101.836 23.683C101.885 23.6335 101.91 23.5451 101.91 23.4178V20.4794C101.91 20.2673 101.822 20.1577 101.645 20.1506L101.199 20.1188Z" fill="white"/>
<path d="M100.044 19.2701V23.7255L100.649 23.7573V24.6059H98.124V23.7997L98.4741 23.7679C98.6792 23.7467 98.7817 23.6335 98.7817 23.4284V20.4794C98.7817 20.3592 98.7605 20.2779 98.7181 20.2354C98.6827 20.193 98.6155 20.1718 98.5165 20.1718L98.1452 20.1506V19.2701H100.044ZM98.7075 18.3578C98.5589 18.2093 98.4847 18.0219 98.4847 17.7956C98.4847 17.5693 98.5589 17.3819 98.7075 17.2334C98.856 17.0778 99.0505 17 99.2909 17C99.5313 17 99.7258 17.0778 99.8743 17.2334C100.03 17.3819 100.108 17.5693 100.108 17.7956C100.108 18.0219 100.03 18.2093 99.8743 18.3578C99.7258 18.4993 99.5313 18.57 99.2909 18.57C99.0505 18.57 98.856 18.4993 98.7075 18.3578Z" fill="white"/>
<path d="M95.3028 18.1457H95.9923V19.2701H97.4032L97.2971 20.1612H95.9923V22.9511C95.9923 23.2622 96.0489 23.4815 96.162 23.6088C96.2752 23.729 96.4485 23.7891 96.6818 23.7891C96.9223 23.7891 97.1627 23.7148 97.4032 23.5663L97.7214 24.3831C97.3678 24.6307 96.9188 24.7544 96.3742 24.7544C96.056 24.7544 95.7872 24.712 95.568 24.6271C95.3488 24.5493 95.1861 24.4609 95.08 24.3619C94.974 24.2629 94.8926 24.118 94.8361 23.927C94.7795 23.7361 94.7477 23.5876 94.7406 23.4815C94.7335 23.3683 94.73 23.2057 94.73 22.9935V20.1612H93.9768L94.0829 19.3868C94.4153 19.3585 94.6663 19.2418 94.8361 19.0367C95.0058 18.8246 95.1614 18.5276 95.3028 18.1457Z" fill="white"/>
<path d="M90.4156 21.8797C90.4156 22.4808 90.5288 22.9475 90.7551 23.2799C90.9814 23.6123 91.3067 23.7785 91.731 23.7785C92.1624 23.7785 92.5867 23.6265 93.004 23.3224L93.4601 24.1392C92.958 24.5493 92.3286 24.7544 91.5719 24.7544C90.8152 24.7544 90.2176 24.5175 89.7792 24.0437C89.3478 23.5628 89.1321 22.8556 89.1321 21.9221C89.1321 20.9886 89.3796 20.2885 89.8746 19.8217C90.3767 19.3479 90.939 19.111 91.5613 19.111C92.1907 19.111 92.7741 19.256 93.3116 19.5459V20.925L92.3357 20.9992V20.49C92.3357 20.2991 92.265 20.1824 92.1235 20.14C91.9892 20.0905 91.8477 20.0657 91.6992 20.0657C90.8435 20.0657 90.4156 20.6704 90.4156 21.8797Z" fill="white"/>
<path d="M87.8762 19.4823V23.4284C87.8762 23.5416 87.8939 23.6194 87.9293 23.6618C87.9717 23.7042 88.0424 23.729 88.1414 23.7361L88.4809 23.7573V24.6059H86.7942V23.9907L86.7624 23.9801C86.4088 24.4892 85.9243 24.7438 85.3091 24.7438C84.5877 24.7438 84.0538 24.514 83.7073 24.0543C83.3608 23.5946 83.1875 22.9652 83.1875 22.1661C83.1875 21.2043 83.4209 20.4547 83.8876 19.9172C84.3544 19.3797 85.0545 19.111 85.988 19.111C86.5891 19.111 87.2185 19.2348 87.8762 19.4823ZM86.6457 22.9193V20.1718C86.4477 20.0799 86.1754 20.0339 85.8289 20.0339C85.3551 20.0339 85.0121 20.2248 84.7999 20.6067C84.5877 20.9886 84.4817 21.4943 84.4817 22.1237C84.4817 23.2693 84.8494 23.8422 85.5849 23.8422C85.8961 23.8422 86.1507 23.7502 86.3487 23.5663C86.5467 23.3754 86.6457 23.1597 86.6457 22.9193Z" fill="white"/>
<path d="M78.8709 23.4178V20.4794C78.8709 20.3663 78.8497 20.2885 78.8072 20.2461C78.7719 20.1965 78.7047 20.1683 78.6057 20.1612L78.1602 20.1294V19.2701H79.9529V20.0657C80.0802 19.7899 80.2782 19.5636 80.547 19.3868C80.8157 19.2029 81.1233 19.111 81.4698 19.111C81.8234 19.111 82.1594 19.1888 82.4776 19.3444V20.925L81.4911 20.9992V20.5113C81.4911 20.3698 81.4557 20.2814 81.385 20.2461C81.3072 20.2107 81.2117 20.193 81.0986 20.193C80.8157 20.193 80.5823 20.2956 80.3984 20.5006C80.2216 20.6987 80.1332 20.9532 80.1332 21.2644V23.7255L81.0561 23.7679V24.6059H78.2132V23.7997L78.5633 23.7679C78.6693 23.7538 78.7471 23.7255 78.7966 23.683C78.8461 23.6335 78.8709 23.5451 78.8709 23.4178Z" fill="white"/>
<path d="M75.3922 18.1457H76.0817V19.2701H77.4925L77.3865 20.1612H76.0817V22.9511C76.0817 23.2622 76.1383 23.4815 76.2514 23.6088C76.3646 23.729 76.5378 23.7891 76.7712 23.7891C77.0116 23.7891 77.2521 23.7148 77.4925 23.5663L77.8108 24.3831C77.4572 24.6307 77.0081 24.7544 76.4636 24.7544C76.1453 24.7544 75.8766 24.712 75.6574 24.6271C75.4381 24.5493 75.2755 24.4609 75.1694 24.3619C75.0633 24.2629 74.982 24.118 74.9254 23.927C74.8688 23.7361 74.837 23.5876 74.8299 23.4815C74.8229 23.3683 74.8193 23.2057 74.8193 22.9935V20.1612H74.0662L74.1722 19.3868C74.5046 19.3585 74.7557 19.2418 74.9254 19.0367C75.0951 18.8246 75.2507 18.5276 75.3922 18.1457Z" fill="white"/>
<path d="M68.2151 20.1188V19.2701H70.0078V19.9596C70.1917 19.698 70.4357 19.4929 70.7398 19.3444C71.0439 19.1888 71.3727 19.111 71.7263 19.111C72.2638 19.111 72.6775 19.2666 72.9675 19.5777C73.2645 19.8818 73.413 20.3415 73.413 20.9568V23.7255L74.0176 23.7573V24.6059H71.4929V23.7997L71.843 23.7679C71.9491 23.7538 72.0269 23.7255 72.0764 23.683C72.1259 23.6335 72.1506 23.5451 72.1506 23.4178V21.2326C72.1506 20.8436 72.0905 20.5572 71.9703 20.3733C71.8501 20.1824 71.6202 20.0869 71.2808 20.0869C70.9484 20.0869 70.6832 20.193 70.4852 20.4052C70.2872 20.6173 70.1882 20.8684 70.1882 21.1583V23.7255L70.7928 23.7573V24.6059H68.2681V23.7997L68.6182 23.7679C68.7243 23.7538 68.8021 23.7255 68.8516 23.683C68.9011 23.6335 68.9258 23.5451 68.9258 23.4178V20.4794C68.9258 20.2673 68.8374 20.1577 68.6606 20.1506L68.2151 20.1188Z" fill="white"/>
<path d="M65.1141 23.8315C65.885 23.8315 66.2704 23.2092 66.2704 21.9645C66.2704 21.3351 66.182 20.8578 66.0052 20.5325C65.8355 20.2072 65.5455 20.0445 65.1354 20.0445C64.7323 20.0445 64.4352 20.2001 64.2443 20.5113C64.0533 20.8224 63.9579 21.2467 63.9579 21.7842C63.9579 22.7814 64.1417 23.4072 64.5095 23.6618C64.6721 23.775 64.8737 23.8315 65.1141 23.8315ZM62.6743 21.9327C62.6743 21.4094 62.7521 20.9568 62.9077 20.5749C63.0633 20.1859 63.2719 19.8889 63.5336 19.6838C64.0357 19.3019 64.5908 19.111 65.199 19.111C65.6233 19.111 65.9805 19.1817 66.2704 19.3232C66.5674 19.4575 66.7973 19.6166 66.9599 19.8005C67.1297 19.9773 67.2711 20.239 67.3842 20.5855C67.5045 20.925 67.5646 21.3281 67.5646 21.7948C67.5646 22.7707 67.3277 23.5098 66.8538 24.0119C66.38 24.514 65.7718 24.765 65.0293 24.765C64.2938 24.765 63.7174 24.5281 63.3002 24.0543C62.8829 23.5734 62.6743 22.8662 62.6743 21.9327Z" fill="white"/>
<path d="M59.0682 21.8797C59.0682 22.4808 59.1814 22.9475 59.4077 23.2799C59.634 23.6123 59.9593 23.7785 60.3836 23.7785C60.815 23.7785 61.2393 23.6265 61.6566 23.3224L62.1127 24.1392C61.6106 24.5493 60.9812 24.7544 60.2245 24.7544C59.4678 24.7544 58.8702 24.5175 58.4317 24.0437C58.0004 23.5628 57.7847 22.8556 57.7847 21.9221C57.7847 20.9886 58.0322 20.2885 58.5272 19.8217C59.0293 19.3479 59.5916 19.111 60.2139 19.111C60.8433 19.111 61.4267 19.256 61.9642 19.5459V20.925L60.9883 20.9992V20.49C60.9883 20.2991 60.9175 20.1824 60.7761 20.14C60.6417 20.0905 60.5003 20.0657 60.3518 20.0657C59.4961 20.0657 59.0682 20.6704 59.0682 21.8797Z" fill="white"/>
<path d="M49.2368 20.1188V19.2701H51.0296V19.9596C51.2134 19.698 51.4574 19.4929 51.7615 19.3444C52.0656 19.1888 52.3945 19.111 52.7481 19.111C53.2855 19.111 53.6992 19.2666 53.9892 19.5777C54.2862 19.8818 54.4347 20.3415 54.4347 20.9568V23.7255L55.0394 23.7573V24.6059H52.5147V23.7997L52.8647 23.7679C52.9708 23.7538 53.0486 23.7255 53.0981 23.683C53.1476 23.6335 53.1724 23.5451 53.1724 23.4178V21.2326C53.1724 20.8436 53.1123 20.5572 52.992 20.3733C52.8718 20.1824 52.642 20.0869 52.3025 20.0869C51.9701 20.0869 51.7049 20.193 51.5069 20.4052C51.3089 20.6173 51.2099 20.8684 51.2099 21.1583V23.7255L51.8146 23.7573V24.6059H49.2899V23.7997L49.6399 23.7679C49.746 23.7538 49.8238 23.7255 49.8733 23.683C49.9228 23.6335 49.9475 23.5451 49.9475 23.4178V20.4794C49.9475 20.2673 49.8591 20.1577 49.6823 20.1506L49.2368 20.1188Z" fill="white"/>
<path d="M48.0447 19.4823V23.4284C48.0447 23.5416 48.0624 23.6194 48.0977 23.6618C48.1401 23.7042 48.2109 23.729 48.3099 23.7361L48.6493 23.7573V24.6059H46.9627V23.9907L46.9308 23.9801C46.5772 24.4892 46.0928 24.7438 45.4776 24.7438C44.7562 24.7438 44.2223 24.514 43.8757 24.0543C43.5292 23.5946 43.356 22.9652 43.356 22.1661C43.356 21.2043 43.5893 20.4547 44.0561 19.9172C44.5228 19.3797 45.223 19.111 46.1565 19.111C46.7576 19.111 47.387 19.2348 48.0447 19.4823ZM46.8142 22.9193V20.1718C46.6161 20.0799 46.3439 20.0339 45.9973 20.0339C45.5235 20.0339 45.1805 20.2248 44.9684 20.6067C44.7562 20.9886 44.6501 21.4943 44.6501 22.1237C44.6501 23.2693 45.0179 23.8422 45.7534 23.8422C46.0645 23.8422 46.3191 23.7502 46.5171 23.5663C46.7151 23.3754 46.8142 23.1597 46.8142 22.9193Z" fill="white"/>
<path d="M38.0449 23.4178V18.2518C38.0449 18.1386 38.0237 18.0608 37.9813 18.0184C37.9459 17.976 37.8787 17.9512 37.7797 17.9441L37.4084 17.9229V17.0424H39.2966V21.6357C39.6856 21.6003 40.0251 21.4801 40.315 21.275C40.605 21.0699 40.803 20.8012 40.9091 20.4688C40.9303 20.3981 40.9409 20.3415 40.9409 20.2991C40.9409 20.1789 40.8737 20.1188 40.7393 20.1188L40.3362 20.0975V19.2701H42.5321V20.1294L42.0229 20.1506C41.9309 20.8719 41.6198 21.4412 41.0894 21.8585L42.129 23.7255L42.7761 23.7573V24.6059H41.2273L40.018 22.3995C39.7846 22.4631 39.5442 22.5126 39.2966 22.548V23.7255H39.3072L39.9119 23.7573V24.6059H37.3872V23.7997L37.7373 23.7679C37.8433 23.7538 37.9211 23.7255 37.9706 23.683C38.0201 23.6335 38.0449 23.5451 38.0449 23.4178Z" fill="white"/>
<path d="M33.4659 23.4178V20.4794C33.4659 20.3663 33.4446 20.2885 33.4022 20.2461C33.3669 20.1965 33.2997 20.1683 33.2007 20.1612L32.7551 20.1294V19.2701H34.5479V20.0657C34.6752 19.7899 34.8732 19.5636 35.1419 19.3868C35.4107 19.2029 35.7183 19.111 36.0648 19.111C36.4184 19.111 36.7543 19.1888 37.0726 19.3444V20.925L36.086 20.9992V20.5113C36.086 20.3698 36.0507 20.2814 35.9799 20.2461C35.9022 20.2107 35.8067 20.193 35.6935 20.193C35.4107 20.193 35.1773 20.2956 34.9934 20.5006C34.8166 20.6987 34.7282 20.9532 34.7282 21.2644V23.7255L35.6511 23.7679V24.6059H32.8082V23.7997L33.1582 23.7679C33.2643 23.7538 33.3421 23.7255 33.3916 23.683C33.4411 23.6335 33.4659 23.5451 33.4659 23.4178Z" fill="white"/>
<path d="M31.5525 19.4823V23.4284C31.5525 23.5416 31.5702 23.6194 31.6055 23.6618C31.648 23.7042 31.7187 23.729 31.8177 23.7361L32.1571 23.7573V24.6059H30.4705V23.9907L30.4387 23.9801C30.0851 24.4892 29.6006 24.7438 28.9854 24.7438C28.264 24.7438 27.7301 24.514 27.3836 24.0543C27.037 23.5946 26.8638 22.9652 26.8638 22.1661C26.8638 21.2043 27.0971 20.4547 27.5639 19.9172C28.0306 19.3797 28.7308 19.111 29.6643 19.111C30.2654 19.111 30.8948 19.2348 31.5525 19.4823ZM30.322 22.9193V20.1718C30.124 20.0799 29.8517 20.0339 29.5052 20.0339C29.0313 20.0339 28.6883 20.2248 28.4762 20.6067C28.264 20.9886 28.1579 21.4943 28.1579 22.1237C28.1579 23.2693 28.5257 23.8422 29.2612 23.8422C29.5723 23.8422 29.8269 23.7502 30.0249 23.5663C30.223 23.3754 30.322 23.1597 30.322 22.9193Z" fill="white"/>
<path d="M23.4102 19.4823V23.4284C23.4102 23.5416 23.4278 23.6194 23.4632 23.6618C23.5056 23.7042 23.5763 23.729 23.6754 23.7361L24.0148 23.7573V24.6059H22.3281V23.9907L22.2963 23.9801C21.9427 24.4892 21.4583 24.7438 20.843 24.7438C20.1217 24.7438 19.5878 24.514 19.2412 24.0543C18.8947 23.5946 18.7214 22.9652 18.7214 22.1661C18.7214 21.2043 18.9548 20.4547 19.4216 19.9172C19.8883 19.3797 20.5884 19.111 21.5219 19.111C22.1231 19.111 22.7525 19.2348 23.4102 19.4823ZM22.1796 22.9193V20.1718C21.9816 20.0799 21.7093 20.0339 21.3628 20.0339C20.889 20.0339 20.546 20.2248 20.3338 20.6067C20.1217 20.9886 20.0156 21.4943 20.0156 22.1237C20.0156 23.2693 20.3833 23.8422 21.1188 23.8422C21.43 23.8422 21.6846 23.7502 21.8826 23.5663C22.0806 23.3754 22.1796 23.1597 22.1796 22.9193Z" fill="white"/>
<path d="M15.9568 19.2701H18.1951V20.0975L17.8663 20.1187C17.7248 20.1329 17.6294 20.2178 17.5799 20.3733L16.2114 24.6059H14.5884L13.1033 20.3839C13.0679 20.2849 13.029 20.2178 12.9866 20.1824C12.9513 20.147 12.8876 20.1258 12.7957 20.1187L12.488 20.0975V19.2701H14.9809V20.1187L14.3338 20.1506L15.4264 23.6406H15.4477L16.5085 20.1506L15.9568 20.1187V19.2701Z" fill="white"/>
<path d="M9.72279 23.8315C10.4936 23.8315 10.8791 23.2092 10.8791 21.9645C10.8791 21.3351 10.7907 20.8578 10.6139 20.5325C10.4441 20.2072 10.1542 20.0445 9.74401 20.0445C9.3409 20.0445 9.04388 20.2001 8.85294 20.5113C8.66199 20.8224 8.56652 21.2467 8.56652 21.7842C8.56652 22.7814 8.75039 23.4072 9.11814 23.6618C9.28079 23.775 9.48234 23.8315 9.72279 23.8315ZM7.28296 21.9327C7.28296 21.4094 7.36075 20.9568 7.51633 20.5749C7.67192 20.1859 7.88054 19.8889 8.1422 19.6838C8.64431 19.3019 9.19946 19.111 9.80765 19.111C10.232 19.111 10.5891 19.1817 10.8791 19.3232C11.1761 19.4575 11.4059 19.6166 11.5686 19.8005C11.7383 19.9773 11.8797 20.239 11.9929 20.5855C12.1131 20.925 12.1732 21.3281 12.1732 21.7948C12.1732 22.7707 11.9363 23.5098 11.4625 24.0119C10.9887 24.514 10.3805 24.765 9.63793 24.765C8.90244 24.765 8.32608 24.5281 7.90883 24.0543C7.49158 23.5734 7.28296 22.8662 7.28296 21.9327Z" fill="white"/>
<path d="M0 24.6059V23.7467L0.381887 23.7148C0.565758 23.7007 0.657694 23.6017 0.657694 23.4178V18.4851L0.0530398 18.4533V17.5516H1.96247L4.96453 22.4207H4.98574V18.4851L4.28562 18.4533V17.5516H6.87396V18.4109L6.49207 18.4427C6.32234 18.4568 6.23748 18.5665 6.23748 18.7715V24.6059H4.99635L1.93065 19.6626H1.90943V23.6724L2.59895 23.7042V24.6059H0Z" fill="white"/>
<path d="M158.867 37.0834C158.476 37.0834 158.28 36.8835 158.28 36.4835C158.28 36.0916 158.476 35.8956 158.867 35.8956C159.251 35.8956 159.443 36.0916 159.443 36.4835C159.443 36.8835 159.251 37.0834 158.867 37.0834ZM156.42 43.7422V42.7704H157.212C157.996 42.7704 158.388 42.3705 158.388 41.5706V39.0871L159.419 38.5352V41.6066C159.419 42.2865 159.215 42.8224 158.808 43.2143C158.432 43.5663 157.94 43.7422 157.332 43.7422H156.42Z" fill="white"/>
<path d="M156.354 42.7704H157.146V43.7423H156.234C155.57 43.7423 155.046 43.5303 154.662 43.1064C154.278 43.5303 153.754 43.7423 153.09 43.7423H152.178V42.7704H152.97C153.754 42.7704 154.146 42.3705 154.146 41.5706V39.0871L155.178 38.5352V41.5706C155.178 42.3705 155.57 42.7704 156.354 42.7704ZM154.59 44.942C154.974 44.942 155.166 45.138 155.166 45.5299C155.166 45.9299 154.974 46.1298 154.59 46.1298C154.198 46.1298 154.002 45.9299 154.002 45.5299C154.002 45.138 154.198 44.942 154.59 44.942Z" fill="white"/>
<path d="M150.217 37.0834C149.825 37.0834 149.629 36.8835 149.629 36.4835C149.629 36.0916 149.825 35.8956 150.217 35.8956C150.601 35.8956 150.793 36.0916 150.793 36.4835C150.793 36.8835 150.601 37.0834 150.217 37.0834ZM152.112 42.7704H152.904V43.7422H151.992C151.328 43.7422 150.804 43.5303 150.421 43.1064C150.037 43.5303 149.513 43.7422 148.849 43.7422H147.937V42.7704H148.729C149.513 42.7704 149.905 42.3705 149.905 41.5706V39.0871L150.936 38.5352V41.5706C150.936 42.3705 151.328 42.7704 152.112 42.7704Z" fill="white"/>
<path d="M148.531 43.7422C148.451 44.4461 148.067 45.01 147.38 45.4339C146.74 45.8259 145.924 46.0218 144.932 46.0218C143.668 46.0218 142.716 45.6539 142.077 44.918C141.605 44.3741 141.369 43.7023 141.369 42.9024C141.369 42.2305 141.537 41.6546 141.873 41.1747L142.868 40.9587C142.508 41.5266 142.328 42.1385 142.328 42.7944C142.328 43.5063 142.56 44.0662 143.024 44.4741C143.48 44.882 144.116 45.086 144.932 45.086C145.62 45.086 146.188 44.966 146.636 44.7261C147.084 44.4861 147.356 44.1582 147.452 43.7422H146.252L146.756 42.7704H148.567V43.7422H148.531Z" fill="white"/>
<path d="M135.621 43.7422V36.5555L136.653 36.0036V43.7422H135.621Z" fill="white"/>
<path d="M130.538 43.7422V42.7704H131.174C132.006 42.7704 132.422 42.3345 132.422 41.4626V36.5555L133.465 36.0036V41.4746C133.465 42.1865 133.253 42.7504 132.829 43.1663C132.43 43.5503 131.906 43.7422 131.258 43.7422H130.538Z" fill="white"/>
<path d="M130.45 42.7704H131.253V43.7423H130.342C129.678 43.7423 129.154 43.5303 128.77 43.1064C128.362 43.6903 127.766 43.9822 126.982 43.9822C126.198 43.9822 125.606 43.6943 125.206 43.1184C124.831 43.5343 124.307 43.7423 123.635 43.7423H122.723V42.7704H123.515C124.299 42.7704 124.691 42.3705 124.691 41.5706V41.1747C124.691 40.2469 124.919 39.535 125.374 39.0391C125.774 38.5992 126.31 38.3792 126.982 38.3792C127.75 38.3792 128.342 38.6632 128.758 39.2311C129.11 39.719 129.286 40.3669 129.286 41.1747V41.5706C129.286 42.3705 129.674 42.7704 130.45 42.7704ZM126.982 43.0104C127.374 43.0104 127.682 42.8464 127.906 42.5185C128.138 42.1905 128.254 41.7386 128.254 41.1627C128.254 39.9469 127.83 39.339 126.982 39.339C126.142 39.339 125.722 39.9469 125.722 41.1627C125.722 42.3945 126.142 43.0104 126.982 43.0104Z" fill="white"/>
<path d="M110.057 43.7423V42.7704H111.137C111.913 42.7704 112.301 42.3705 112.301 41.5706V39.8909L113.333 39.339V41.5706C113.333 42.3705 113.724 42.7704 114.508 42.7704H115.06C115.844 42.7704 116.236 42.3705 116.236 41.5706V39.483L117.268 38.9431V41.5706C117.268 42.3705 117.656 42.7704 118.432 42.7704H118.996C119.779 42.7704 120.171 42.3705 120.171 41.5706V39.0871L121.203 38.5352V41.4627C121.203 42.3345 121.619 42.7704 122.451 42.7704H123.447V43.7423H122.367C121.647 43.7423 121.099 43.4983 120.723 43.0104C120.387 43.4903 119.863 43.7343 119.152 43.7423H118.324C117.62 43.7423 117.096 43.5063 116.752 43.0344C116.408 43.4983 115.896 43.7343 115.216 43.7423H114.388C113.7 43.7423 113.177 43.5063 112.817 43.0344C112.473 43.5063 111.949 43.7423 111.245 43.7423H110.057Z" fill="white"/>
<path d="M107.159 37.1674C106.768 37.1674 106.572 36.9675 106.572 36.5675C106.572 36.1756 106.768 35.9796 107.159 35.9796C107.543 35.9796 107.735 36.1756 107.735 36.5675C107.735 36.9675 107.543 37.1674 107.159 37.1674ZM108.695 37.1674C108.303 37.1674 108.107 36.9675 108.107 36.5675C108.107 36.1756 108.303 35.9796 108.695 35.9796C109.079 35.9796 109.271 36.1756 109.271 36.5675C109.271 36.9675 109.079 37.1674 108.695 37.1674ZM109.991 42.7704H110.783V43.7423H109.871C109.207 43.7423 108.683 43.5303 108.299 43.1064C107.915 43.5303 107.391 43.7423 106.728 43.7423H105.816V42.7704H106.608C107.391 42.7704 107.783 42.3705 107.783 41.5706V39.0871L108.815 38.5352V41.5706C108.815 42.3705 109.207 42.7704 109.991 42.7704Z" fill="white"/>
<path d="M102.031 37.1674C101.639 37.1674 101.443 36.9675 101.443 36.5675C101.443 36.1756 101.639 35.9796 102.031 35.9796C102.415 35.9796 102.607 36.1756 102.607 36.5675C102.607 36.9675 102.415 37.1674 102.031 37.1674ZM103.554 37.1674C103.162 37.1674 102.966 36.9675 102.966 36.5675C102.966 36.1756 103.162 35.9796 103.554 35.9796C103.938 35.9796 104.13 36.1756 104.13 36.5675C104.13 36.9675 103.938 37.1674 103.554 37.1674ZM104.298 42.7704H106.53V43.7423H103.602C103.29 43.7423 103.018 43.7143 102.787 43.6583C102.563 43.7143 102.291 43.7423 101.971 43.7423H99.0552V42.7704H101.287C100.791 42.2025 100.543 41.5746 100.543 40.8868C100.543 40.1029 100.763 39.479 101.203 39.0151C101.603 38.5912 102.131 38.3792 102.787 38.3792C103.538 38.3792 104.118 38.6512 104.526 39.1951C104.87 39.643 105.042 40.2069 105.042 40.8868C105.042 41.5746 104.794 42.2025 104.298 42.7704ZM102.799 42.6624C103.166 42.5345 103.466 42.3025 103.698 41.9666C103.93 41.6226 104.046 41.2467 104.046 40.8388C104.046 40.3749 103.93 40.0109 103.698 39.747C103.474 39.475 103.17 39.339 102.787 39.339C102.403 39.339 102.095 39.475 101.863 39.747C101.639 40.0189 101.527 40.3829 101.527 40.8388C101.527 41.2387 101.647 41.6106 101.887 41.9546C102.127 42.2985 102.431 42.5345 102.799 42.6624Z" fill="white"/>
<path d="M98.989 42.7704H99.7808V43.7423H98.869C98.2051 43.7423 97.6812 43.5303 97.2973 43.1064C96.9133 43.5303 96.3894 43.7423 95.7256 43.7423H94.8137V42.7704H95.6056C96.3894 42.7704 96.7814 42.3705 96.7814 41.5706V39.0871L97.8132 38.5352V41.5706C97.8132 42.3705 98.2051 42.7704 98.989 42.7704ZM97.2253 44.942C97.6092 44.942 97.8012 45.138 97.8012 45.5299C97.8012 45.9299 97.6092 46.1298 97.2253 46.1298C96.8334 46.1298 96.6374 45.9299 96.6374 45.5299C96.6374 45.138 96.8334 44.942 97.2253 44.942Z" fill="white"/>
<path d="M94.7395 42.7704H95.5314V43.7422H94.6195C94.1876 43.7422 93.7997 43.6463 93.4558 43.4543C93.3438 44.2781 92.9718 44.926 92.34 45.3979C91.7801 45.8139 91.0882 46.0218 90.2643 46.0218C89.1925 46.0218 88.3647 45.6619 87.7808 44.942C87.3328 44.3821 87.1089 43.7142 87.1089 42.9384C87.1089 42.2585 87.2729 41.6786 87.6008 41.1987L88.6326 40.9707C88.2647 41.5386 88.0807 42.1585 88.0807 42.8304C88.0807 43.4943 88.2927 44.0382 88.7166 44.4621C89.1085 44.854 89.6244 45.05 90.2643 45.05C90.9922 45.05 91.5521 44.834 91.944 44.4021C92.28 44.0342 92.4479 43.5623 92.4479 42.9864V36.5555L93.4917 36.0036V41.5706C93.4917 42.3705 93.9077 42.7704 94.7395 42.7704Z" fill="white"/>
<path d="M79.3945 43.7423V42.7704H80.1864C80.9702 42.7704 81.3622 42.3705 81.3622 41.5706V39.0871L82.394 38.5352V41.6066C82.394 42.2865 82.19 42.8224 81.7821 43.2144C81.4062 43.5663 80.9143 43.7423 80.3064 43.7423H79.3945ZM81.3262 46.1298C80.9343 46.1298 80.7383 45.9299 80.7383 45.5299C80.7383 45.138 80.9343 44.942 81.3262 44.942C81.7101 44.942 81.9021 45.138 81.9021 45.5299C81.9021 45.9299 81.7101 46.1298 81.3262 46.1298Z" fill="white"/>
<path d="M76.4844 35.8357L76.7603 35.3198H77.0843C77.0043 35.1758 76.9643 35.0238 76.9643 34.8638C76.9643 34.6319 77.0523 34.4319 77.2282 34.264C77.4042 34.088 77.6082 34 77.8401 34C78.0401 34 78.2321 34.064 78.416 34.192V34.7199C78.2481 34.5839 78.0801 34.5159 77.9121 34.5159C77.6162 34.5159 77.4682 34.6519 77.4682 34.9238C77.4682 35.0518 77.5282 35.1838 77.6482 35.3198H78.74L78.464 35.8357H76.4844ZM79.2079 43.7423C78.512 43.7423 77.9761 43.5183 77.6002 43.0704C77.2802 42.6864 77.1203 42.1985 77.1203 41.6066V37.0355L78.1521 36.4836V41.5706C78.1521 42.3705 78.544 42.7704 79.3279 42.7704H80.1197V43.7423H79.2079Z" fill="white"/>
<path d="M63.8115 43.7423V42.7704H64.8913C65.6672 42.7704 66.0551 42.3705 66.0551 41.5706V39.8909L67.0869 39.339V41.5706C67.0869 42.3705 67.4789 42.7704 68.2627 42.7704H68.8146C69.5985 42.7704 69.9904 42.3705 69.9904 41.5706V39.483L71.0222 38.9431V41.5706C71.0222 42.3705 71.4102 42.7704 72.186 42.7704H72.7499C73.5338 42.7704 73.9257 42.3705 73.9257 41.5706V39.0871L74.9575 38.5352V41.6066C74.9575 42.2865 74.7536 42.8184 74.3456 43.2024C73.9857 43.5543 73.5058 43.7343 72.9059 43.7423H72.078C71.3742 43.7423 70.8503 43.5063 70.5063 43.0344C70.1624 43.4983 69.6505 43.7343 68.9706 43.7423H68.1427C67.4549 43.7423 66.931 43.5063 66.571 43.0344C66.2271 43.5063 65.7032 43.7423 64.9993 43.7423H63.8115Z" fill="white"/>
<path d="M63.5313 42.7704H64.5271V43.7423H63.4473C62.7434 43.7423 62.1915 43.5223 61.7916 43.0824C61.4157 43.5223 60.8838 43.7423 60.1959 43.7423H59.392C58.7201 43.7423 58.2002 43.5343 57.8323 43.1184C57.4564 43.5343 56.9325 43.7423 56.2606 43.7423H55.4687C55.0528 43.7423 54.6929 43.6583 54.3889 43.4903C54.2929 44.3062 53.937 44.942 53.3211 45.398C52.7692 45.8139 52.0853 46.0218 51.2695 46.0218C50.2297 46.0218 49.4218 45.6539 48.8459 44.918C48.406 44.3501 48.186 43.6783 48.186 42.9024C48.186 42.2305 48.354 41.6546 48.6899 41.1747L49.6858 40.9588C49.3258 41.5267 49.1459 42.1385 49.1459 42.7944C49.1459 43.4663 49.3538 44.0182 49.7698 44.4501C50.1617 44.8501 50.6616 45.05 51.2695 45.05C51.9734 45.05 52.5173 44.8461 52.9012 44.4381C53.2211 44.0942 53.3811 43.6463 53.3811 43.0944V39.8909L54.4129 39.339V41.5706C54.4129 42.3705 54.8009 42.7704 55.5767 42.7704H56.1406C56.9165 42.7704 57.3044 42.3705 57.3044 41.5706V39.483L58.3482 38.9431V41.5706C58.3482 42.3705 58.7361 42.7704 59.512 42.7704H60.0759C60.8518 42.7704 61.2397 42.3705 61.2397 41.5706V39.0871L62.2835 38.5352V41.4627C62.2835 42.3345 62.6994 42.7704 63.5313 42.7704Z" fill="white"/>
<path d="M40.7679 37.1674C40.376 37.1674 40.18 36.9675 40.18 36.5675C40.18 36.1756 40.376 35.9796 40.7679 35.9796C41.1518 35.9796 41.3438 36.1756 41.3438 36.5675C41.3438 36.9675 41.1518 37.1674 40.7679 37.1674ZM42.2916 37.1674C41.8997 37.1674 41.7037 36.9675 41.7037 36.5675C41.7037 36.1756 41.8997 35.9796 42.2916 35.9796C42.6756 35.9796 42.8675 36.1756 42.8675 36.5675C42.8675 36.9675 42.6756 37.1674 42.2916 37.1674ZM37.6365 43.7423V42.7704H39.7961C39.4282 42.3625 39.2442 41.7946 39.2442 41.0667C39.2442 40.1949 39.4721 39.515 39.9281 39.0271C40.328 38.5952 40.8599 38.3792 41.5238 38.3792C42.2037 38.3792 42.7316 38.5912 43.1075 39.0151C43.4274 39.391 43.5874 39.8829 43.5874 40.4908V41.6306C43.5794 42.2945 43.3834 42.8184 42.9995 43.2024C42.6236 43.5623 42.1237 43.7423 41.4998 43.7423H37.6365ZM42.5556 40.5388C42.5556 39.739 42.2117 39.339 41.5238 39.339C41.1319 39.339 40.8239 39.491 40.5999 39.795C40.376 40.0909 40.264 40.5068 40.264 41.0427C40.264 41.5706 40.372 41.9906 40.5879 42.3025C40.8039 42.6145 41.0919 42.7704 41.4518 42.7704C42.1877 42.7704 42.5556 42.3865 42.5556 41.6186V40.5388Z" fill="white"/>
<path d="M38.3523 42.7704V43.7423H36.8646C36.8326 44.4301 36.5367 44.998 35.9768 45.4459C35.5048 45.8139 34.9689 45.9978 34.369 45.9978C33.8731 45.9978 33.4052 45.8819 32.9653 45.6499V44.7381C33.3892 44.962 33.8092 45.074 34.2251 45.074C34.649 45.074 35.0169 44.942 35.3289 44.6781C35.6488 44.4141 35.8128 44.0982 35.8208 43.7303C35.4049 43.7143 35.0969 43.6983 34.897 43.6823C34.0331 43.6343 33.3812 43.3423 32.9413 42.8064C32.5734 42.3585 32.3894 41.7786 32.3894 41.0667C32.3894 40.1949 32.6214 39.515 33.0853 39.0271C33.5012 38.5952 34.0491 38.3792 34.729 38.3792C35.4409 38.3792 35.9888 38.5912 36.3727 39.0151C36.7006 39.391 36.8646 39.8829 36.8646 40.4908V42.7704H38.3523ZM35.8208 40.5628C35.8208 39.747 35.4569 39.339 34.729 39.339C34.3131 39.339 33.9891 39.491 33.7572 39.795C33.5252 40.0909 33.4092 40.5068 33.4092 41.0427C33.4092 42.0905 33.9211 42.6464 34.9449 42.7104C35.1369 42.7344 35.4289 42.7544 35.8208 42.7704V40.5628Z" fill="white"/>
<path d="M27.5952 43.7423V42.7704H28.3871C29.1709 42.7704 29.5629 42.3705 29.5629 41.5706V39.0871L30.5947 38.5352V41.6066C30.5947 42.2865 30.3907 42.8224 29.9828 43.2144C29.6069 43.5663 29.1149 43.7423 28.5071 43.7423H27.5952ZM28.2311 46.1298C27.8392 46.1298 27.6432 45.9299 27.6432 45.5299C27.6432 45.138 27.8392 44.942 28.2311 44.942C28.615 44.942 28.807 45.138 28.807 45.5299C28.807 45.9299 28.615 46.1298 28.2311 46.1298ZM29.7548 46.1298C29.3629 46.1298 29.1669 45.9299 29.1669 45.5299C29.1669 45.138 29.3629 44.942 29.7548 44.942C30.1388 44.942 30.3307 45.138 30.3307 45.5299C30.3307 45.9299 30.1388 46.1298 29.7548 46.1298Z" fill="white"/>
<path d="M23.7637 36.9635C23.3718 36.9635 23.1758 36.7635 23.1758 36.3636C23.1758 35.9716 23.3718 35.7757 23.7637 35.7757C24.1476 35.7757 24.3396 35.9716 24.3396 36.3636C24.3396 36.7635 24.1476 36.9635 23.7637 36.9635ZM25.2874 36.9635C24.8955 36.9635 24.6995 36.7635 24.6995 36.3636C24.6995 35.9716 24.8955 35.7757 25.2874 35.7757C25.6713 35.7757 25.8633 35.9716 25.8633 36.3636C25.8633 36.7635 25.6713 36.9635 25.2874 36.9635ZM27.519 42.7704H28.3109V43.7422H27.399C26.5752 43.7422 25.9833 43.4383 25.6234 42.8304C25.2394 43.1983 24.7635 43.3823 24.1956 43.3823C23.4917 43.3823 22.9318 43.1184 22.5159 42.5904C22.172 42.1425 22 41.5946 22 40.9467C22 40.1709 22.236 39.547 22.7079 39.0751C23.1078 38.6671 23.5957 38.4632 24.1716 38.4632C24.6115 38.4632 24.9915 38.5752 25.3114 38.7991V38.2832L26.3552 37.7313V41.5706C26.3552 42.3705 26.7432 42.7704 27.519 42.7704ZM25.3114 39.9149C25.0155 39.587 24.6515 39.423 24.2196 39.423C23.8677 39.423 23.5797 39.567 23.3558 39.8549C23.1318 40.1349 23.0198 40.5028 23.0198 40.9587C23.0198 41.4227 23.1318 41.7946 23.3558 42.0745C23.5797 42.3545 23.8717 42.4945 24.2316 42.4945C24.6795 42.4945 25.0475 42.3105 25.3354 41.9426C25.3194 41.7986 25.3114 41.6866 25.3114 41.6066V39.9149Z" fill="white"/>
</svg>
