<svg width="63" height="49" viewBox="0 0 63 49" fill="none" xmlns="http://www.w3.org/2000/svg">
<path d="M31.9473 6.1339C31.9473 15.5712 31.7999 24.7871 31.6524 25.0083C31.5787 25.1557 31.5786 25.1559 31.4312 24.9347C31.2837 24.6398 31.1363 19.3313 31.1363 12.622V9.23046L30.4727 8.86182C29.2193 8.12454 26.6389 6.79746 26.5652 6.87119C26.5652 6.94492 26.4914 9.00928 26.4914 11.4423C26.4914 13.9491 26.4176 15.9398 26.4176 15.9398C26.4176 15.9398 26.1228 15.7923 25.7541 15.6448C25.4592 15.4974 25.0906 15.35 25.0168 15.35C24.8694 15.35 24.7956 21.1008 24.7956 28.4737C24.7956 31.3491 24.722 36.7311 24.722 40.4913L24.6482 47.3481H24.2058H23.6897V41.5236C23.616 38.3533 23.6161 33.7083 23.6161 31.1278C23.6161 28.5473 23.5423 24.8609 23.5423 22.8702C23.4685 18.8152 23.4685 18.9626 22.805 19.5525L22.4363 19.8473L22.3625 26.3354C22.3625 35.2566 22.289 47.0532 22.1415 47.2006C22.1415 47.3481 22.0676 47.4219 21.9939 47.4219C21.699 47.4219 21.699 47.4956 21.6253 34.0033C21.5515 25.8194 21.4778 20.8059 21.4778 20.7322C21.3795 20.683 21.2813 20.7075 21.183 20.8058C21.0355 20.8795 20.9617 21.1008 20.888 21.6169C20.888 21.9855 20.8144 26.7041 20.8144 32.0863C20.8144 37.4685 20.8143 43.1456 20.7406 44.6201C20.6668 47.3481 20.6669 47.3481 20.4457 47.3481C20.372 47.4218 20.1507 47.4218 20.0033 47.3481C19.8558 47.2743 19.8559 47.2744 19.8559 44.3253C19.8559 38.6482 19.7084 28.0312 19.6346 28.0312C19.5609 28.0312 19.1924 28.2524 18.8237 28.5473L18.0864 28.9897L18.0126 36.7312C17.9389 41.0075 17.9389 44.5465 17.8652 44.6939C17.7915 44.9151 17.7915 44.915 17.4966 44.915C17.3491 44.8413 17.2016 44.8413 17.2016 44.7676C17.1278 44.7676 16.9805 31.5703 16.9805 28.4737V25.5245L18.0864 24.7873C18.6763 24.4186 19.266 23.9762 19.4134 23.8287C19.5609 23.6076 19.5609 23.4601 19.6346 21.1008V18.5939L21.183 17.488L22.805 16.4559L22.8788 13.2855C22.8788 11.516 22.9525 9.37792 23.0262 8.49318C23.0262 7.60844 23.0262 6.7975 23.0262 6.72377C22.9525 6.42885 20.0033 4.6593 19.8559 4.80675C19.7821 4.80675 19.7822 7.46098 19.7084 10.705C19.7084 13.8754 19.6346 16.5296 19.6346 16.6033C19.5609 16.677 18.6762 16.2347 18.3813 15.9398C18.1601 15.7924 18.0864 15.7185 18.0864 13.5804L18.0126 11.3685L17.3492 10.9263C16.6119 10.4839 16.5381 10.4839 16.3906 10.7788C16.3906 10.9263 16.3906 14.244 16.3168 18.2253C16.3168 22.2066 16.317 27.8101 16.2432 30.6855C16.1695 36.1414 16.1694 36.4363 15.727 36.51C15.5058 36.51 15.5058 35.3303 15.3583 22.649C15.2846 17.0456 15.211 12.4009 15.1373 12.2534C15.0636 11.9585 14.9161 12.0322 14.7687 12.4008C14.6949 12.5483 14.6212 16.1609 14.5474 20.5846C14.4 36.4362 14.3999 35.7727 13.8838 35.1829C13.7363 35.0354 13.7365 34.6668 13.6627 27.0727C13.589 22.649 13.5151 18.9626 13.5151 18.7414C13.4414 18.5202 13.3677 18.3728 12.6304 17.9305C12.1143 17.6355 11.7456 17.4143 11.6719 17.488C11.6719 17.5617 11.5982 20.3635 11.5245 23.6813C11.5245 27.0728 11.4509 29.8006 11.4509 29.8006C11.3771 29.8006 10.861 29.5796 10.2711 29.211L9.16522 28.6211L9.09142 29.1372C9.01769 29.4321 9.0178 33.266 9.0178 37.6159C9.0178 41.9659 9.01772 45.8735 8.944 46.3896L8.87038 47.3481H8.42793H7.98549L7.91187 44.4727C7.83814 42.8507 7.76445 40.2701 7.76445 38.6481L7.69065 35.6253L7.322 35.4041C6.51099 34.888 6.28981 34.8142 6.21608 34.9616C6.14235 35.0354 6.14228 37.8372 6.14228 41.1549V47.2744L5.92124 47.3481C5.77378 47.4218 5.62621 47.3481 5.62621 47.3481C5.47876 47.2006 5.33137 45.3574 5.33137 42.5557C5.33137 39.9015 5.33141 39.9753 4.81531 40.1964L4.59409 40.2702L4.52029 43.8091C4.44656 45.726 4.44667 47.2744 4.44667 47.2744C4.44667 47.2744 3.56185 47.3481 2.52965 47.3481C0.465255 47.4218 0.612783 47.4218 0.76024 48.0854L0.833861 48.3804H31.5786H62.3235V47.9379V47.4219H60.7752C59.8904 47.4219 58.7845 47.4218 58.1947 47.3481L57.1625 47.2744V40.1964V33.0448L56.3515 32.4549C55.9091 32.16 55.5405 31.9389 55.4668 31.9389C55.393 31.9389 55.3193 33.3397 55.3193 35.6253C55.2456 37.6897 55.2455 40.1227 55.1717 41.0811L55.0981 42.7031L54.9507 42.5557C54.8032 42.4083 54.7294 42.1133 54.6557 41.5972C54.5819 41.2286 54.5082 35.7727 54.5082 29.5058L54.4344 18.1517L54.0658 17.9305C53.476 17.4881 52.8125 17.1931 52.8125 17.2668C52.7387 17.3405 52.665 23.6075 52.665 31.2752C52.5913 38.943 52.5913 45.6523 52.5176 46.2421C52.4439 47.2006 52.4438 47.2743 52.2226 47.3481C52.0014 47.4218 51.7803 47.348 51.7065 47.1268C51.7065 47.0531 51.6328 39.5328 51.5591 30.3905C51.4854 15.4236 51.4117 13.8016 51.2643 13.6542C50.8956 13.3593 49.5684 12.6957 49.4947 12.7695C49.4947 12.8432 49.421 18.5939 49.3473 25.5982C49.3473 37.5422 49.3472 38.3532 49.126 38.5006C48.6099 39.0167 48.6099 38.3532 48.5362 22.133L48.4625 8.93562L48.1675 8.7144C47.7989 8.41949 46.398 7.75597 46.3243 7.82969C46.2506 7.82969 46.1769 13.3593 46.1769 19.9949L46.1033 32.1601H45.882C45.6854 32.1601 45.5626 32.0617 45.5134 31.8651C45.3659 31.4964 45.2184 23.0176 45.2184 14.6863C45.2184 11.516 45.1448 7.82966 45.1448 6.50255C45.071 4.0695 45.0709 3.92201 44.8497 3.70083C44.7023 3.6271 44.6286 3.55341 44.5549 3.55341C44.4074 3.77459 44.3337 5.6915 44.3337 13.6542V21.9117H44.1125C43.6701 21.7643 43.5965 21.6168 43.5228 20.4372C43.5228 19.7736 43.449 15.4237 43.449 10.705C43.449 6.06014 43.3752 2.07887 43.3752 1.93141L43.3015 1.71019L43.0065 2.00503L42.6379 2.22626V11.5161C42.6379 16.6034 42.5642 20.8796 42.4905 20.8796C42.4905 20.9533 42.3431 20.8795 42.1956 20.8058L41.827 20.6584V17.0458V13.433L41.532 13.2855L41.2371 13.2117V10.1152V7.09241L39.8363 6.20752C39.0991 5.76515 38.3616 5.39662 38.2142 5.39662C37.993 5.32289 37.9931 5.32293 37.9193 7.09241C37.9193 7.97715 37.8456 13.8753 37.7719 20.0685C37.7719 26.3354 37.6982 31.4227 37.6245 31.4964C37.5508 31.6439 37.0346 31.3491 36.9608 31.0542C36.8871 30.833 36.7397 21.2483 36.666 15.2025C36.666 10.8526 36.6659 9.67287 36.4448 9.45168C36.4448 9.45168 36.2236 9.52534 36.0761 9.74653L35.7075 10.1152V17.9305C35.7075 22.2067 35.6337 25.7456 35.6337 25.7456C35.5599 25.7456 35.3389 25.5982 35.044 25.4507L34.6016 25.1559V16.3085V7.46105L35.4126 6.87119L36.2235 6.28132L36.2973 4.73295V3.18476L34.5277 2.15246C33.5693 1.63636 32.6109 1.04664 32.3897 0.972908L31.9473 0.751686V6.1339ZM33.9381 26.1142C34.0118 27.3676 34.0118 44.3989 33.9381 46.0209L33.8643 47.3481H32.6109H31.3576V44.6939C31.3576 43.2931 31.2838 39.2379 31.2838 35.6989L31.21 29.3584L30.7677 29.1372C30.2516 28.8422 30.1041 28.6211 30.0304 28.105C29.9567 27.7364 29.9567 27.6626 30.1778 27.4414C30.399 27.1465 33.5693 25.1559 33.7905 25.1559C33.8642 25.1559 33.9381 25.4507 33.9381 26.1142ZM29.3668 38.3532V47.2744L28.9981 47.3481C28.482 47.4218 28.3346 47.348 28.2608 47.1268C28.1871 47.0531 28.1135 44.6201 28.0398 41.671C27.9661 34.9617 27.9659 34.9617 27.5235 35.2567C27.2286 35.4041 27.1549 35.9938 27.1549 41.5972L27.0813 47.3481H26.7126H26.4176L26.344 44.3989C26.2703 42.7769 26.2702 39.6804 26.2702 37.4685L26.344 33.4134L26.7863 33.0448C28.0396 31.9389 27.9659 32.0862 28.1134 30.9066C28.1871 30.3905 28.2608 29.8744 28.2608 29.8744C28.2608 29.8007 29.1456 29.3584 29.2193 29.3584C29.3668 29.3584 29.3668 31.2016 29.3668 38.3532ZM43.0803 33.9295C43.1541 34.3719 43.1541 46.0947 43.0803 46.832L43.0065 47.3481H42.1218C41.3108 47.3481 41.1634 47.2743 41.0897 47.1268C41.0897 47.0531 41.0159 44.6938 41.0159 41.8184C40.9422 39.0167 40.9422 36.6575 40.8685 36.5838C40.7947 36.5838 40.5736 36.6574 40.3524 36.8049L39.91 37.0261V40.049C39.91 41.671 39.8363 43.9566 39.8363 45.1362L39.7625 47.3481H39.4677H39.1727V41.5236V35.7727L40.2786 35.1092C41.6795 34.2245 42.7854 33.6347 42.9329 33.6347C43.0066 33.6347 43.0803 33.7821 43.0803 33.9295Z" fill="white"/>
</svg>
