<svg width="70" height="29" viewBox="0 0 70 29" fill="none" xmlns="http://www.w3.org/2000/svg">
<path d="M8.18795 1.0835V26.1661C5.74832 25.0512 3.68448 23.2791 2.23858 21.0578C0.792664 18.8364 0.0246582 16.2579 0.0246582 13.6248C0.0246582 10.9917 0.792664 8.41321 2.23858 6.19186C3.68448 3.9705 5.74832 2.19841 8.18795 1.0835ZM16.329 14.6463C15.5139 14.6534 14.7004 14.5751 13.9023 14.4127V4.56595L16.1155 4.52401C19.9244 4.52401 21.83 6.17212 21.8323 9.46838C21.8336 12.9203 19.9998 14.6463 16.331 14.6463H16.329Z" fill="#F9F2EC"/>
<path d="M28.0392 13.6241C28.0392 17.2783 26.5551 20.7829 23.9133 23.3676C21.2714 25.9522 17.688 27.4054 13.9508 27.4076H13.8699V19.24C14.5199 19.2963 15.214 19.3244 15.9524 19.3244C19.7106 19.3244 22.6697 18.3268 24.8296 16.3314C26.4262 14.8417 27.4525 12.862 27.7374 10.7222C27.942 11.6764 28.0431 12.6491 28.0392 13.6241Z" fill="#F9F2EC"/>
<path d="M32.79 16.5907V7.24121H36.388C37.1813 7.24121 37.8393 7.35072 38.362 7.56974C38.8847 7.77962 39.2767 8.12184 39.538 8.59641C39.8087 9.07092 39.944 9.70521 39.944 10.4992C39.944 11.2931 39.8087 11.941 39.538 12.443C39.2767 12.9358 38.8847 13.3008 38.362 13.5381C37.8393 13.7662 37.1813 13.8803 36.388 13.8803H34.722V16.5907H32.79ZM34.722 12.3335H36.332C36.92 12.3335 37.34 12.1829 37.592 11.8817C37.844 11.5714 37.97 11.1152 37.97 10.5129C37.97 9.89225 37.844 9.44966 37.592 9.18503C37.34 8.92034 36.92 8.78806 36.332 8.78806H34.722V12.3335ZM44.6869 16.7413C43.9029 16.7413 43.2355 16.6409 42.6849 16.4401C42.1435 16.2394 41.7329 15.9063 41.4529 15.4409C41.1729 14.9663 41.0329 14.3366 41.0329 13.5518V7.24121H42.9649V13.6202C42.9649 14.1586 43.1095 14.5465 43.3989 14.7838C43.6975 15.021 44.1269 15.1397 44.6869 15.1397C45.2749 15.1397 45.7181 15.021 46.0169 14.7838C46.3155 14.5465 46.4649 14.1586 46.4649 13.6202V7.24121H48.3969V13.5244C48.3969 14.3092 48.2521 14.9389 47.9629 15.4135C47.6829 15.888 47.2675 16.2302 46.7169 16.4401C46.1755 16.6409 45.4989 16.7413 44.6869 16.7413ZM50.0849 16.5907V7.24121H52.0169V16.5907H50.0849ZM57.388 16.7413C56.604 16.7413 55.9367 16.6409 55.386 16.4401C54.8447 16.2394 54.434 15.9063 54.154 15.4409C53.874 14.9663 53.734 14.3366 53.734 13.5518V7.24121H55.666V13.6202C55.666 14.1586 55.8107 14.5465 56.1 14.7838C56.3987 15.021 56.828 15.1397 57.388 15.1397C57.976 15.1397 58.4193 15.021 58.718 14.7838C59.0167 14.5465 59.166 14.1586 59.166 13.6202V7.24121H61.098V13.5244C61.098 14.3092 60.9533 14.9389 60.664 15.4135C60.384 15.888 59.9687 16.2302 59.418 16.4401C58.8767 16.6409 58.2 16.7413 57.388 16.7413ZM62.0161 16.5907L64.6201 12.046L62.0161 7.24121H64.0601L65.8801 10.6771L67.7981 7.24121H69.7721L67.1541 11.8681L69.7161 16.5907H67.6581L65.8661 13.2506L64.0181 16.5907H62.0161Z" fill="#F9F2EC"/>
<path d="M33.674 22.8613L33.0752 19.9508H33.4328L33.9324 22.5665H34.053L34.6561 19.9719H35.061L35.6641 22.5665H35.7848L36.2844 19.9508H36.642L36.0389 22.8613H35.4186L34.8284 20.2414H34.8888L34.2986 22.8613H33.674ZM37.7121 22.9034C37.4967 22.9034 37.3259 22.8627 37.1995 22.7812C37.076 22.6998 36.987 22.5791 36.9324 22.419C36.8779 22.259 36.8506 22.0596 36.8506 21.8209C36.8506 21.5542 36.8879 21.3407 36.9626 21.1807C37.0373 21.0178 37.1421 20.8999 37.277 20.8269C37.412 20.7511 37.5714 20.7132 37.7552 20.7132C38.0423 20.7132 38.2592 20.7918 38.4056 20.9491C38.5521 21.1035 38.6253 21.3534 38.6253 21.6988L38.6081 21.9473H37.1909C37.1937 22.1663 37.2354 22.3319 37.3158 22.4443C37.3962 22.5566 37.5413 22.6127 37.7509 22.6127C37.8313 22.6127 37.9189 22.6114 38.0136 22.6085C38.1113 22.6029 38.2075 22.5973 38.3023 22.5917C38.397 22.5861 38.4774 22.5805 38.5435 22.5749L38.5521 22.8318C38.4832 22.843 38.3984 22.8542 38.298 22.8655C38.2003 22.8767 38.0998 22.8852 37.9964 22.8908C37.893 22.8992 37.7983 22.9034 37.7121 22.9034ZM37.1909 21.6819H38.2893C38.2893 21.4236 38.2463 21.2439 38.1601 21.1428C38.0768 21.0389 37.9419 20.9869 37.7552 20.9869C37.6346 20.9869 37.5326 21.0108 37.4493 21.0586C37.3661 21.1035 37.3014 21.1765 37.2555 21.2776C37.2124 21.3786 37.1909 21.5134 37.1909 21.6819ZM39.8482 22.9034C39.785 22.9034 39.7089 22.9006 39.6199 22.895C39.5338 22.8921 39.4462 22.8865 39.3571 22.8781C39.2681 22.8697 39.1891 22.8627 39.1202 22.857V19.8413H39.4562V20.8563C39.5022 20.8339 39.5596 20.8128 39.6285 20.7932C39.6975 20.7707 39.7707 20.7525 39.8482 20.7384C39.9286 20.7216 40.0048 20.7132 40.0765 20.7132C40.2718 20.7132 40.4268 20.7497 40.5418 20.8227C40.6595 20.8929 40.7428 21.0066 40.7916 21.1638C40.8433 21.3183 40.8691 21.5219 40.8691 21.7746C40.8691 22.0554 40.8376 22.2786 40.7744 22.4443C40.714 22.6071 40.6092 22.7251 40.4599 22.7981C40.3135 22.8683 40.1096 22.9034 39.8482 22.9034ZM39.8439 22.6085C40.0392 22.6085 40.1842 22.5805 40.279 22.5243C40.3766 22.4653 40.4412 22.3741 40.4729 22.2506C40.5073 22.127 40.5245 21.9683 40.5245 21.7746C40.5245 21.5949 40.5102 21.4489 40.4815 21.3365C40.4528 21.2242 40.4025 21.1414 40.3307 21.0881C40.2618 21.0347 40.1656 21.008 40.042 21.008C39.9731 21.008 39.9013 21.015 39.8267 21.0291C39.752 21.0403 39.6817 21.0558 39.6156 21.0754C39.5524 21.0922 39.4993 21.1091 39.4562 21.1259V22.5875C39.5165 22.5931 39.5855 22.5987 39.663 22.6043C39.7434 22.6071 39.8037 22.6085 39.8439 22.6085ZM41.4665 22.9244L41.165 22.8191L42.3797 19.875L42.6812 19.9845L41.4665 22.9244ZM42.7542 22.8613L43.5683 19.9508H44.3136L45.1234 22.8613H44.7788L44.5677 22.1242H43.3099L43.0988 22.8613H42.7542ZM43.3831 21.8251H44.4945L44.0508 20.2372H43.8268L43.3831 21.8251ZM45.5314 23.7921V20.7553H45.8631V20.9069C45.909 20.8788 45.9665 20.8507 46.0354 20.8227C46.1072 20.7918 46.1833 20.7665 46.2637 20.7468C46.3441 20.7244 46.4217 20.7132 46.4963 20.7132C46.6801 20.7132 46.8294 20.7511 46.9443 20.8269C47.0592 20.8999 47.1439 21.015 47.1985 21.1722C47.2559 21.3295 47.2846 21.5331 47.2846 21.783C47.2846 22.0582 47.2516 22.2786 47.1855 22.4443C47.1224 22.6071 47.0204 22.7251 46.8797 22.7981C46.7418 22.8683 46.5623 22.9034 46.3412 22.9034C46.2522 22.9034 46.1618 22.8978 46.0698 22.8865C45.9808 22.8753 45.9119 22.8655 45.8631 22.857V23.7921H45.5314ZM46.324 22.617C46.479 22.617 46.6011 22.5889 46.6901 22.5327C46.782 22.4765 46.8467 22.3881 46.884 22.2674C46.9213 22.1438 46.94 21.9824 46.94 21.783C46.94 21.4994 46.8969 21.3 46.8108 21.1849C46.7246 21.067 46.604 21.008 46.4489 21.008C46.38 21.008 46.3082 21.0164 46.2335 21.0333C46.1618 21.0501 46.0928 21.0712 46.0268 21.0965C45.9607 21.1189 45.9061 21.1428 45.8631 21.1681V22.5749C45.909 22.5805 45.9765 22.5889 46.0655 22.6001C46.1546 22.6114 46.2407 22.617 46.324 22.617ZM47.8072 23.7921V20.7553H48.1389V20.9069C48.1848 20.8788 48.2423 20.8507 48.3112 20.8227C48.383 20.7918 48.4591 20.7665 48.5395 20.7468C48.6199 20.7244 48.6975 20.7132 48.7721 20.7132C48.9559 20.7132 49.1053 20.7511 49.2201 20.8269C49.335 20.8999 49.4198 21.015 49.4743 21.1722C49.5317 21.3295 49.5604 21.5331 49.5604 21.783C49.5604 22.0582 49.5274 22.2786 49.4614 22.4443C49.3982 22.6071 49.2962 22.7251 49.1555 22.7981C49.0177 22.8683 48.8382 22.9034 48.617 22.9034C48.528 22.9034 48.4376 22.8978 48.3457 22.8865C48.2567 22.8753 48.1878 22.8655 48.1389 22.857V23.7921H47.8072ZM48.5999 22.617C48.7549 22.617 48.8769 22.5889 48.966 22.5327C49.0579 22.4765 49.1225 22.3881 49.1599 22.2674C49.1972 22.1438 49.2159 21.9824 49.2159 21.783C49.2159 21.4994 49.1728 21.3 49.0866 21.1849C49.0005 21.067 48.8799 21.008 48.7248 21.008C48.6559 21.008 48.584 21.0164 48.5094 21.0333C48.4376 21.0501 48.3687 21.0712 48.3026 21.0965C48.2366 21.1189 48.182 21.1428 48.1389 21.1681V22.5749C48.1848 22.5805 48.2523 22.5889 48.3414 22.6001C48.4304 22.6114 48.5166 22.617 48.5999 22.617ZM50.755 22.9034C50.689 22.9034 50.6086 22.8992 50.5138 22.8908C50.4219 22.8823 50.33 22.8725 50.2381 22.8613C50.1462 22.8472 50.0644 22.8346 49.9926 22.8234L50.0098 22.5411C50.0816 22.5496 50.162 22.5594 50.251 22.5706C50.3429 22.5819 50.432 22.5917 50.5181 22.6001C50.6043 22.6057 50.6732 22.6085 50.7249 22.6085C50.8427 22.6085 50.9403 22.5987 51.0178 22.5791C51.0954 22.5566 51.1542 22.5201 51.1944 22.4696C51.2347 22.419 51.2548 22.3474 51.2548 22.2547C51.2548 22.1845 51.2389 22.1298 51.2074 22.0905C51.1787 22.0512 51.1227 22.0189 51.0394 21.9936C50.9589 21.9683 50.8412 21.9445 50.6861 21.922C50.5253 21.8967 50.3903 21.8658 50.2812 21.8293C50.1749 21.79 50.0959 21.7324 50.0443 21.6566C49.9926 21.5809 49.9668 21.4727 49.9668 21.3323C49.9668 21.1751 50.0041 21.0515 50.0788 20.9617C50.1534 20.8718 50.2496 20.8086 50.3674 20.7722C50.488 20.7328 50.6129 20.7132 50.7421 20.7132C50.8226 20.7132 50.9101 20.7174 51.0049 20.7258C51.1026 20.7342 51.1973 20.7455 51.2892 20.7595C51.3811 20.7707 51.4601 20.782 51.5261 20.7932L51.5175 21.0754C51.4486 21.0642 51.3682 21.0543 51.2763 21.0459C51.1844 21.0347 51.0925 21.0263 51.0006 21.0206C50.9087 21.0122 50.8283 21.008 50.7594 21.008C50.6732 21.008 50.5957 21.0178 50.5268 21.0375C50.4578 21.0543 50.4032 21.0852 50.363 21.1301C50.3229 21.1751 50.3028 21.2383 50.3028 21.3197C50.3028 21.3814 50.3171 21.432 50.3458 21.4713C50.3745 21.5078 50.4291 21.5387 50.5095 21.564C50.5899 21.5893 50.7062 21.6145 50.8584 21.6398C51.0365 21.6679 51.1787 21.703 51.2849 21.7451C51.394 21.7872 51.473 21.8462 51.5218 21.922C51.5707 21.9978 51.595 22.1045 51.595 22.2421C51.595 22.405 51.5606 22.5355 51.4917 22.6338C51.4256 22.7293 51.3294 22.7981 51.203 22.8402C51.0796 22.8823 50.9302 22.9034 50.755 22.9034ZM53.902 22.8992C53.8159 22.8992 53.7153 22.8936 53.6005 22.8823C53.4856 22.8739 53.3707 22.8627 53.2559 22.8486C53.1439 22.8318 53.0448 22.8178 52.9586 22.8065L52.9931 22.5285C53.0764 22.537 53.1726 22.5468 53.2817 22.558C53.3937 22.5693 53.5029 22.5791 53.6091 22.5875C53.7183 22.5959 53.8102 22.6001 53.8848 22.6001C54.0255 22.6001 54.1418 22.5805 54.2337 22.5411C54.3256 22.499 54.3945 22.4359 54.4405 22.3516C54.4864 22.2674 54.5094 22.1593 54.5094 22.0273C54.5094 21.9206 54.4879 21.8363 54.4448 21.7746C54.4046 21.71 54.3357 21.6594 54.238 21.6229C54.1433 21.5837 54.0154 21.5486 53.8546 21.5176C53.6996 21.4868 53.5646 21.4517 53.4497 21.4124C53.3349 21.373 53.2386 21.3239 53.1611 21.265C53.0836 21.2032 53.0262 21.1259 52.9888 21.0333C52.9514 20.9406 52.9328 20.8255 52.9328 20.6879C52.9328 20.4997 52.9715 20.3481 53.0491 20.233C53.1295 20.1179 53.2415 20.0336 53.3851 19.9803C53.5315 19.9269 53.701 19.9002 53.8934 19.9002C53.9795 19.9002 54.0772 19.9059 54.1863 19.9171C54.2983 19.9255 54.4074 19.9368 54.5137 19.9508C54.6228 19.962 54.7162 19.9747 54.7937 19.9887L54.7635 20.2709C54.6802 20.2597 54.5841 20.2499 54.475 20.2414C54.3658 20.2302 54.261 20.2204 54.1605 20.212C54.06 20.2035 53.9795 20.1993 53.9193 20.1993C53.7814 20.1993 53.6651 20.2161 53.5703 20.2499C53.4755 20.2835 53.4038 20.3355 53.355 20.4057C53.3061 20.4731 53.2817 20.5601 53.2817 20.6668C53.2817 20.7904 53.3047 20.8845 53.3506 20.9491C53.3994 21.0136 53.477 21.0642 53.5833 21.1007C53.6895 21.1371 53.8288 21.1751 54.0011 21.2144C54.1504 21.2481 54.2783 21.2846 54.3845 21.3239C54.4936 21.3632 54.5826 21.4124 54.6516 21.4713C54.7233 21.5275 54.7751 21.5991 54.8066 21.6861C54.8411 21.7704 54.8583 21.8757 54.8583 22.002C54.8583 22.2155 54.8195 22.3881 54.742 22.5201C54.6645 22.6521 54.5539 22.749 54.4103 22.8107C54.2667 22.8697 54.0973 22.8992 53.902 22.8992ZM56.198 22.9034C55.9567 22.9034 55.7687 22.8627 55.6337 22.7812C55.5016 22.6998 55.4082 22.5762 55.3537 22.4106C55.302 22.2449 55.2761 22.0357 55.2761 21.783C55.2761 21.5415 55.3048 21.3422 55.3623 21.1849C55.4226 21.0276 55.5202 20.9097 55.6552 20.8311C55.7902 20.7525 55.9711 20.7132 56.198 20.7132C56.4277 20.7132 56.6101 20.7525 56.7451 20.8311C56.88 20.9097 56.9763 21.0276 57.0337 21.1849C57.094 21.3422 57.1241 21.5415 57.1241 21.783C57.1241 22.0357 57.0968 22.2449 57.0423 22.4106C56.9906 22.5762 56.8973 22.6998 56.7623 22.7812C56.6302 22.8627 56.4421 22.9034 56.198 22.9034ZM56.198 22.6212C56.3646 22.6212 56.4895 22.5931 56.5727 22.537C56.656 22.478 56.7106 22.3867 56.7365 22.2632C56.7652 22.1396 56.7795 21.9796 56.7795 21.783C56.7795 21.5893 56.7623 21.4348 56.7278 21.3197C56.6934 21.2045 56.6345 21.1217 56.5512 21.0712C56.4679 21.0206 56.3502 20.9953 56.198 20.9953C56.0487 20.9953 55.9309 21.0206 55.8447 21.0712C55.7615 21.1217 55.7026 21.2045 55.6681 21.3197C55.6337 21.4348 55.6165 21.5893 55.6165 21.783C55.6165 21.9796 55.6294 22.1396 55.6552 22.2632C55.6839 22.3867 55.7399 22.478 55.8232 22.537C55.9065 22.5931 56.0314 22.6212 56.198 22.6212ZM57.6768 22.8613V19.8413H58.0085V22.8613H57.6768ZM59.3111 22.9034C59.1273 22.9034 58.9867 22.8669 58.889 22.7939C58.7914 22.7209 58.7238 22.6071 58.6865 22.4527C58.6521 22.2983 58.6348 22.0989 58.6348 21.8546V20.7553H58.9665V21.8546C58.9665 22.0399 58.9751 22.1873 58.9924 22.2968C59.0125 22.4064 59.0541 22.4864 59.1173 22.537C59.1805 22.5847 59.2752 22.6085 59.4016 22.6085C59.5279 22.6085 59.6428 22.5917 59.7462 22.558C59.8496 22.5243 59.9329 22.4906 59.9961 22.4569V20.7553H60.3278V22.8613H59.9961V22.7139C59.9042 22.7644 59.8037 22.8093 59.6945 22.8486C59.5883 22.8852 59.4605 22.9034 59.3111 22.9034ZM61.6555 22.9076C61.5061 22.9076 61.387 22.8852 61.298 22.8402C61.2118 22.7952 61.1501 22.718 61.1127 22.6085C61.0754 22.4962 61.0567 22.339 61.0567 22.1368V21.0375H60.7509V20.7553H61.0567V20.1109H61.3884V20.7553H62.0647V21.0375H61.3884V22.0399C61.3884 22.1888 61.3941 22.3053 61.4057 22.3895C61.42 22.4709 61.4487 22.5285 61.4918 22.5622C61.5349 22.5959 61.6024 22.6127 61.6943 22.6127C61.723 22.6127 61.7603 22.6114 61.8062 22.6085C61.8522 22.6057 61.8981 22.6029 61.9441 22.6001C61.993 22.5945 62.036 22.5903 62.0733 22.5875L62.0949 22.8613C62.0547 22.8669 62.0073 22.8725 61.9527 22.8781C61.8981 22.8865 61.8436 22.8936 61.7891 22.8992C61.7373 22.9048 61.6928 22.9076 61.6555 22.9076ZM62.4593 22.8613V20.7553H62.791V22.8613H62.4593ZM62.4593 20.292V19.9129H62.791V20.292H62.4593ZM64.237 22.9034C63.9958 22.9034 63.8074 22.8627 63.6725 22.7812C63.5407 22.6998 63.4473 22.5762 63.3928 22.4106C63.341 22.2449 63.3152 22.0357 63.3152 21.783C63.3152 21.5415 63.3439 21.3422 63.4014 21.1849C63.4617 21.0276 63.5593 20.9097 63.6942 20.8311C63.8291 20.7525 64.0104 20.7132 64.237 20.7132C64.4667 20.7132 64.6493 20.7525 64.7842 20.8311C64.9192 20.9097 65.0152 21.0276 65.0725 21.1849C65.133 21.3422 65.1635 21.5415 65.1635 21.783C65.1635 22.0357 65.1362 22.2449 65.0814 22.4106C65.0299 22.5762 64.9363 22.6998 64.8014 22.7812C64.6691 22.8627 64.4813 22.9034 64.237 22.9034ZM64.237 22.6212C64.4037 22.6212 64.5284 22.5931 64.6118 22.537C64.6951 22.478 64.7499 22.3867 64.7753 22.2632C64.804 22.1396 64.8186 21.9796 64.8186 21.783C64.8186 21.5893 64.8014 21.4348 64.7671 21.3197C64.7327 21.2045 64.6735 21.1217 64.5902 21.0712C64.5068 21.0206 64.3891 20.9953 64.237 20.9953C64.0874 20.9953 63.9697 21.0206 63.8838 21.0712C63.8004 21.1217 63.7419 21.2045 63.7075 21.3197C63.6725 21.4348 63.6553 21.5893 63.6553 21.783C63.6553 21.9796 63.6687 22.1396 63.6942 22.2632C63.7228 22.3867 63.7788 22.478 63.8622 22.537C63.9455 22.5931 64.0702 22.6212 64.237 22.6212ZM65.6898 22.8613V20.7553H66.022V20.9027C66.0703 20.8746 66.1308 20.8466 66.2027 20.8184C66.2771 20.7904 66.3561 20.7665 66.4394 20.7468C66.5228 20.7244 66.603 20.7132 66.6806 20.7132C66.8301 20.7132 66.9523 20.7328 67.0471 20.7722C67.142 20.8086 67.2152 20.869 67.2667 20.9532C67.3214 21.0347 67.3583 21.1414 67.3787 21.2734C67.4016 21.4025 67.4131 21.5598 67.4131 21.7451V22.8613H67.0771V21.7578C67.0771 21.5752 67.0656 21.4292 67.0427 21.3197C67.0223 21.2102 66.9797 21.1315 66.9135 21.0838C66.8505 21.0333 66.7525 21.008 66.6208 21.008C66.5489 21.008 66.4738 21.0164 66.3968 21.0333C66.3217 21.0473 66.2517 21.067 66.1855 21.0922C66.1193 21.1147 66.0646 21.1371 66.022 21.1596V22.8613H65.6898ZM68.6801 22.9034C68.6139 22.9034 68.5337 22.8992 68.4389 22.8908C68.3466 22.8823 68.255 22.8725 68.1627 22.8613C68.0711 22.8472 67.989 22.8346 67.9177 22.8234L67.9349 22.5411C68.0068 22.5496 68.087 22.5594 68.1761 22.5706C68.2677 22.5819 68.3568 22.5917 68.4427 22.6001C68.5292 22.6057 68.598 22.6085 68.6495 22.6085C68.7672 22.6085 68.8652 22.5987 68.9429 22.5791C69.0205 22.5566 69.0791 22.5201 69.1191 22.4696C69.1592 22.419 69.1796 22.3474 69.1796 22.2547C69.1796 22.1845 69.1637 22.1298 69.1325 22.0905C69.1032 22.0512 69.0472 22.0189 68.9645 21.9936C68.8837 21.9683 68.766 21.9445 68.6107 21.922C68.4503 21.8967 68.3154 21.8658 68.206 21.8293C68.0997 21.79 68.0208 21.7324 67.9692 21.6566C67.9177 21.5809 67.8916 21.4727 67.8916 21.3323C67.8916 21.1751 67.9291 21.0515 68.0036 20.9617C68.0781 20.8718 68.1748 20.8086 68.2925 20.7722C68.4128 20.7328 68.5375 20.7132 68.6667 20.7132C68.7475 20.7132 68.8347 20.7174 68.9295 20.7258C69.0275 20.7342 69.1223 20.7455 69.214 20.7595C69.3062 20.7707 69.3852 20.782 69.4507 20.7932L69.4424 21.0754C69.3737 21.0642 69.2929 21.0543 69.2012 21.0459C69.109 21.0347 69.0173 21.0263 68.9257 21.0206C68.8334 21.0122 68.7532 21.008 68.6845 21.008C68.598 21.008 68.5203 21.0178 68.4516 21.0375C68.3829 21.0543 68.3281 21.0852 68.2881 21.1301C68.248 21.1751 68.2276 21.2383 68.2276 21.3197C68.2276 21.3814 68.2422 21.432 68.2709 21.4713C68.2995 21.5078 68.3542 21.5387 68.4344 21.564C68.5146 21.5893 68.6311 21.6145 68.7831 21.6398C68.9613 21.6679 69.1032 21.703 69.2095 21.7451C69.319 21.7872 69.3979 21.8462 69.4469 21.922C69.4952 21.9978 69.5201 22.1045 69.5201 22.2421C69.5201 22.405 69.4857 22.5355 69.4163 22.6338C69.3508 22.7293 69.2541 22.7981 69.1281 22.8402C69.0046 22.8823 68.8551 22.9034 68.6801 22.9034Z" fill="#F9F2EC"/>
</svg>
